<svg xmlns="http://www.w3.org/2000/svg" fill="none" viewBox="0 0 96 96" id="Meta-Icon--Streamline-Svg-Logos" height="24" width="24">
  <desc>
    Meta Icon Streamline Icon: https://streamlinehq.com
  </desc>
  <path fill="#0081fb" d="M11.1532 57.9571c0 3.5892.7878 6.3449 1.8174 8.012 1.3501 2.1836 3.3637 3.1087 5.4166 3.1087 2.6478 0 5.07-.657 9.738-7.1131 3.7396-5.1746 8.146-12.4381 11.1109-16.9916l5.021-7.7146c3.4879-5.3577 7.525-11.3136 12.1537-15.3507 3.7789-3.295 7.8552-5.1256 11.9576-5.1256 6.8875 0 13.4482 3.9913 18.4692 11.4771C92.3326 36.4576 95 46.784 95 57.4406c0 6.3351-1.2487 10.99-3.3735 14.6675-2.0528 3.5565-6.054 7.1098-12.7846 7.1098V69.0778c5.7631 0 7.2014-5.2956 7.2014-11.3561 0-8.6364-2.0137-18.2207-6.4495-25.069-3.148-4.8576-7.2275-7.8258-11.7157-7.8258-4.8543 0-8.7606 3.6612-13.1507 10.1892-2.334 3.4682-4.7301 7.6949-7.4204 12.4642l-2.9616 5.2466c-5.9494 10.5486-7.4563 12.9513-10.431 16.9164-5.2139 6.9431-9.6661 9.5746-15.5272 9.5746-6.9529 0-11.34957-3.0107-14.07255-7.5479C2.09181 67.9729 1 63.1219 1 57.5942l10.1532.3629Z"></path>
  <path fill="url(#a)" d="M9.00586 28.9752C13.6607 21.8 20.3783 16.7822 28.0831 16.7822c4.462 0 8.8979 1.3207 13.5299 5.1028 5.0667 4.1351 10.4669 10.9442 17.2041 22.1662l2.4157 4.0273c5.8317 9.7151 9.1496 14.7133 11.0913 17.0701 2.4974 3.027 4.2463 3.9292 6.5182 3.9292 5.763 0 7.2013-5.2956 7.2013-11.3561l8.9568-.2811c0 6.3351-1.2487 10.99-3.3735 14.6675-2.0529 3.5565-6.054 7.1098-12.7846 7.1098-4.1842 0-7.8911-.9088-11.9903-4.7758-3.1512-2.9682-6.8352-8.2409-9.6693-12.9808L48.7522 47.379c-4.2299-7.0674-8.1101-12.3368-10.3558-14.7231-2.4157-2.5661-5.5212-5.665-10.4768-5.665-4.0109 0-7.4171 2.8146-10.2675 7.1197l-8.64624-5.1354Z"></path>
  <path fill="url(#b)" d="M27.9192 26.9909c-4.0109 0-7.417 2.8146-10.2675 7.1197-4.0305 6.0834-6.4985 15.1447-6.4985 23.8465 0 3.5892.7878 6.3449 1.8174 8.012L4.31465 71.67C2.09181 67.9729 1 63.1219 1 57.5942c0-10.0518 2.75894-20.5286 8.00549-28.619C13.6604 21.8 20.3779 16.7822 28.0827 16.7822l-.1635 10.2087Z"></path>
  <defs>
    <linearGradient id="a" x1="1202.48" x2="7667.08" y1="3509.04" y2="3835.54" gradientUnits="userSpaceOnUse">
      <stop stop-color="#0064e1"></stop>
      <stop offset=".4" stop-color="#0064e1"></stop>
      <stop offset=".83" stop-color="#0073ee"></stop>
      <stop offset="1" stop-color="#0082fb"></stop>
    </linearGradient>
    <linearGradient id="b" x1="1472" x2="1472" y1="4560.53" y2="2174.25" gradientUnits="userSpaceOnUse">
      <stop stop-color="#0082fb"></stop>
      <stop offset="1" stop-color="#0064e0"></stop>
    </linearGradient>
  </defs>
</svg>